G04 #@! TF.FileFunction,Soldermask,Bot*
%FSLAX46Y46*%
G04 Gerber Fmt 4.6, Leading zero omitted, Abs format (unit mm)*
G04 Created by KiCad (PCBNEW 4.0.4-stable) date Tue Feb 14 10:30:05 2017*
%MOMM*%
%LPD*%
G01*
G04 APERTURE LIST*
%ADD10C,0.250000*%
%ADD11O,1.500000X1.100000*%
%ADD12O,1.700000X1.200000*%
%ADD13C,2.000000*%
%ADD14C,1.500000*%
%ADD15R,5.000000X0.400000*%
%ADD16C,1.000000*%
%ADD17C,1.200000*%
%ADD18C,0.900000*%
G04 APERTURE END LIST*
D10*
D11*
X154285200Y-83362180D03*
X154285200Y-78522180D03*
D12*
X157285200Y-83672180D03*
X157285200Y-78212180D03*
D13*
X156630000Y-67780000D03*
D14*
X103150000Y-88740000D03*
D15*
X116120000Y-63070000D03*
X116120000Y-63870000D03*
X116120000Y-64670000D03*
X116120000Y-65470000D03*
X116120000Y-66270000D03*
X116120000Y-67070000D03*
X116120000Y-67870000D03*
X116120000Y-68670000D03*
X116120000Y-69470000D03*
X116120000Y-70270000D03*
X116120000Y-71070000D03*
X116120000Y-71870000D03*
X116120000Y-72670000D03*
X116120000Y-73470000D03*
X116120000Y-74270000D03*
X116120000Y-75070000D03*
X116120000Y-75870000D03*
X116120000Y-76670000D03*
D16*
X114800000Y-78400000D03*
X116450000Y-78450000D03*
D14*
X103210000Y-82260000D03*
D13*
X156600000Y-73150000D03*
X156600000Y-70440000D03*
D17*
X147550000Y-50950000D03*
X145850000Y-50950000D03*
X135700000Y-50950000D03*
X134000000Y-50950000D03*
X110470000Y-50980000D03*
X108770000Y-50980000D03*
X123070000Y-50950000D03*
X121370000Y-50950000D03*
X158710000Y-55370000D03*
X158710000Y-53670000D03*
D18*
X128100000Y-88840000D03*
X131100000Y-88840000D03*
D16*
X119020000Y-59790000D03*
X117520000Y-59790000D03*
M02*
