M48
;DRILL file {KiCad 4.0.4-stable} date Tue Feb 14 10:30:12 2017
;FORMAT={-:-/ absolute / inch / decimal}
FMAT,2
INCH,TZ
T1C0.016
T2C0.020
T3C0.026
T4C0.028
T5C0.031
T6C0.039
T7C0.047
%
G90
G05
M72
T1
X4.0764Y-2.8417
X4.0906Y-2.3366
X4.1378Y-3.3551
X4.1614Y-2.0417
X4.2079Y-3.3799
X4.2087Y-3.4622
X4.2327Y-2.7972
X4.248Y-2.6299
X4.2614Y-3.3768
X4.2823Y-2.4417
X4.3189Y-2.824
X4.3311Y-2.5441
X4.3575Y-3.1319
X4.3579Y-2.8386
X4.3591Y-2.9724
X4.3992Y-3.5378
X4.4067Y-3.4177
X4.4106Y-2.9563
X4.413Y-3.1209
X4.4205Y-2.8638
X4.4301Y-2.6187
X4.4339Y-3.2803
X4.4378Y-3.2484
X4.4394Y-2.8921
X4.4402Y-2.8319
X4.4449Y-2.9528
X4.4602Y-3.4543
X4.4854Y-2.0681
X4.5012Y-2.4197
X4.5071Y-2.2642
X4.5264Y-2.0307
X4.5575Y-3.2303
X4.5693Y-3.5213
X4.6031Y-2.4169
X4.7024Y-3.0394
X4.7059Y-2.4059
X4.7146Y-2.2752
X4.7382Y-3.0669
X4.7598Y-3.1543
X4.7689Y-2.7559
X4.7736Y-3.3083
X4.778Y-2.6543
X4.7844Y-2.9892
X4.7894Y-2.9311
X4.798Y-3.1531
X4.8031Y-2.5343
X4.8126Y-2.7492
X4.8161Y-2.6587
X4.8168Y-2.695
X4.8295Y-3.2976
X4.8346Y-2.5228
X4.8445Y-3.1567
X4.8583Y-2.8776
X4.8684Y-2.6944
X4.8744Y-3.1807
X4.8798Y-3.0006
X4.88Y-3.22
X4.88Y-3.26
X4.8846Y-3.1343
X4.8984Y-3.3827
X4.9Y-3.5378
X4.9079Y-2.5937
X4.9091Y-2.852
X4.9189Y-2.2429
X4.9378Y-2.6248
X4.9472Y-2.552
X4.9496Y-2.0583
X4.9578Y-2.2974
X4.9657Y-2.2417
X4.976Y-2.5807
X5.013Y-3.0146
X5.025Y-2.8384
X5.0514Y-2.6932
X5.064Y-2.8764
X5.0705Y-2.9488
X5.0791Y-2.6606
X5.0796Y-2.815
X5.1024Y-2.9217
X5.1024Y-3.1665
X5.1055Y-2.6311
X5.1102Y-2.841
X5.1161Y-2.5157
X5.1165Y-2.3396
X5.1224Y-2.8898
X5.1299Y-3.1374
X5.1358Y-2.7102
X5.1457Y-2.0154
X5.1591Y-2.0909
X5.161Y-2.1528
X5.1642Y-2.6898
X5.1656Y-2.3225
X5.1708Y-2.571
X5.1791Y-3.0161
X5.1899Y-2.3472
X5.2Y-2.8559
X5.2137Y-2.37
X5.2209Y-3.1358
X5.2254Y-2.6238
X5.2366Y-2.8496
X5.2449Y-3.4012
X5.2575Y-2.7343
X5.2668Y-2.8842
X5.2921Y-3.124
X5.3118Y-3.2378
X5.3252Y-2.4606
X5.3465Y-3.1358
X5.3478Y-3.5118
X5.388Y-2.8854
X5.3916Y-2.6676
X5.397Y-2.6298
X5.3976Y-2.8008
X5.404Y-2.704
X5.4088Y-2.56
X5.409Y-2.5944
X5.4154Y-2.848
X5.4154Y-2.915
X5.4157Y-2.461
X5.418Y-3.336
X5.4862Y-2.1929
X5.4945Y-2.0693
X5.4952Y-3.2392
X5.5138Y-2.2776
X5.544Y-2.5371
X5.552Y-3.1992
X5.5536Y-2.8576
X5.5571Y-2.6019
X5.5607Y-2.5664
X5.5823Y-2.4283
X5.5823Y-2.8862
X5.5824Y-2.7488
X5.6003Y-2.7149
X5.6052Y-3.5064
X5.6072Y-3.312
X5.6296Y-2.4776
X5.6362Y-3.0823
X5.664Y-2.6968
X5.672Y-3.1328
X5.7Y-2.8598
X5.7091Y-3.0614
X5.7488Y-2.776
X5.7504Y-2.8968
X5.7536Y-3.0544
X5.7776Y-3.1848
X5.781Y-3.108
X5.7852Y-3.3762
X5.8008Y-2.96
X5.8032Y-2.4824
X5.8062Y-3.135
X5.8386Y-2.5283
X5.844Y-3.1308
X5.8465Y-2.1173
X5.8476Y-2.1866
X5.8596Y-3.4002
X5.8799Y-2.8744
X5.8839Y-3.035
X5.952Y-3.1392
X6.0392Y-3.3608
X6.0787Y-2.5256
T2
X4.6268Y-2.3539
X4.6858Y-2.3539
T4
X4.5197Y-3.0866
X4.5846Y-3.0886
T5
X4.2823Y-2.0071
X4.3492Y-2.0071
X4.7783Y-2.0059
X4.8453Y-2.0059
X5.2756Y-2.0059
X5.3425Y-2.0059
X5.7421Y-2.0059
X5.8091Y-2.0059
X6.2484Y-2.113
X6.2484Y-2.1799
T6
X4.061Y-3.4937
X4.0634Y-3.2386
T7
X6.1654Y-2.7732
X6.1654Y-2.8799
X6.1665Y-2.6685
T3
X6.0821Y-3.0914G85X6.0663Y-3.0914
G05
X6.0821Y-3.282G85X6.0663Y-3.282
G05
T4
X6.2022Y-3.0792G85X6.1825Y-3.0792
G05
X6.2022Y-3.2942G85X6.1825Y-3.2942
G05
T0
M30
