G04 #@! TF.FileFunction,Copper,L1,Top,Signal*
%FSLAX46Y46*%
G04 Gerber Fmt 4.6, Leading zero omitted, Abs format (unit mm)*
G04 Created by KiCad (PCBNEW 4.0.4-stable) date Tue Feb 14 10:30:05 2017*
%MOMM*%
%LPD*%
G01*
G04 APERTURE LIST*
%ADD10C,0.250000*%
%ADD11R,0.750000X0.800000*%
%ADD12R,0.800000X0.750000*%
%ADD13R,2.200000X1.200000*%
%ADD14R,1.400000X1.600000*%
%ADD15R,1.400000X1.200000*%
%ADD16R,1.600000X0.700000*%
%ADD17R,2.500000X1.800000*%
%ADD18R,0.800000X0.800000*%
%ADD19R,1.650000X0.400000*%
%ADD20O,1.500000X1.100000*%
%ADD21O,1.700000X1.200000*%
%ADD22R,2.500000X1.430000*%
%ADD23C,2.000000*%
%ADD24C,1.500000*%
%ADD25C,1.000000*%
%ADD26R,0.500000X0.900000*%
%ADD27R,0.900000X0.500000*%
%ADD28C,1.200000*%
%ADD29R,0.900000X1.200000*%
%ADD30R,4.500000X1.300000*%
%ADD31R,1.200000X0.900000*%
%ADD32R,1.300000X4.500000*%
%ADD33R,0.700000X1.500000*%
%ADD34R,1.000000X0.800000*%
%ADD35R,1.143000X0.508000*%
%ADD36R,1.060000X0.650000*%
%ADD37R,1.500000X0.280000*%
%ADD38R,0.280000X1.500000*%
%ADD39R,0.300000X0.850000*%
%ADD40R,0.850000X0.300000*%
%ADD41R,2.000000X2.400000*%
%ADD42R,0.800000X0.900000*%
%ADD43C,0.600000*%
G04 APERTURE END LIST*
D10*
D11*
X111780000Y-62710000D03*
X111780000Y-61210000D03*
X102620000Y-61890000D03*
X102620000Y-60390000D03*
D12*
X137690000Y-81020000D03*
X139190000Y-81020000D03*
D11*
X110150000Y-70670000D03*
X110150000Y-69170000D03*
D12*
X126022800Y-59720480D03*
X124522800Y-59720480D03*
X106470000Y-77420000D03*
X104970000Y-77420000D03*
D11*
X111860000Y-70660000D03*
X111860000Y-69160000D03*
D12*
X142583600Y-82316320D03*
X141083600Y-82316320D03*
X113250000Y-89390000D03*
X114750000Y-89390000D03*
X121310000Y-85270000D03*
X122810000Y-85270000D03*
X108240000Y-79130000D03*
X106740000Y-79130000D03*
X103790000Y-52690000D03*
X102290000Y-52690000D03*
X139458000Y-89428320D03*
X140958000Y-89428320D03*
X119130000Y-85910000D03*
X117630000Y-85910000D03*
X119130000Y-89410000D03*
X117630000Y-89410000D03*
X117630000Y-87760000D03*
X119130000Y-87760000D03*
X122410000Y-56140000D03*
X120910000Y-56140000D03*
X136400000Y-55550000D03*
X137900000Y-55550000D03*
D11*
X133500000Y-81890000D03*
X133500000Y-83390000D03*
D12*
X122430000Y-54420000D03*
X120930000Y-54420000D03*
X119646000Y-82804000D03*
X121146000Y-82804000D03*
X114510000Y-87750000D03*
X116010000Y-87750000D03*
X116020000Y-85890000D03*
X114520000Y-85890000D03*
D13*
X149485400Y-58925000D03*
X149485400Y-74425000D03*
D14*
X139885400Y-59825000D03*
D15*
X139885400Y-74425000D03*
D16*
X139385400Y-73275000D03*
X139385400Y-71075000D03*
X139385400Y-72175000D03*
X139385400Y-69975000D03*
X139385400Y-68875000D03*
X139385400Y-67775000D03*
X139385400Y-64475000D03*
X139385400Y-65575000D03*
X139385400Y-66675000D03*
D17*
X102220000Y-55600000D03*
X106220000Y-55600000D03*
D18*
X141170560Y-84185760D03*
X139570560Y-84185760D03*
X139374880Y-86210240D03*
X139374880Y-87810240D03*
X112776000Y-78016000D03*
X112776000Y-76416000D03*
D19*
X154405200Y-82242180D03*
X154405200Y-81592180D03*
X154405200Y-80942180D03*
X154405200Y-80292180D03*
X154405200Y-79642180D03*
D20*
X154285200Y-83362180D03*
X154285200Y-78522180D03*
D21*
X157285200Y-83672180D03*
X157285200Y-78212180D03*
D22*
X157525200Y-81902180D03*
X157525200Y-79982180D03*
D23*
X156630000Y-67780000D03*
D24*
X103150000Y-88740000D03*
D25*
X114800000Y-78400000D03*
X116450000Y-78450000D03*
D24*
X103210000Y-82260000D03*
D23*
X156600000Y-73150000D03*
X156600000Y-70440000D03*
D26*
X101300000Y-58340000D03*
X102800000Y-58340000D03*
X144111280Y-80954880D03*
X145611280Y-80954880D03*
X148459760Y-80954880D03*
X149959760Y-80954880D03*
X148419120Y-82646520D03*
X149919120Y-82646520D03*
D27*
X152664160Y-88491760D03*
X152664160Y-86991760D03*
D26*
X155852560Y-86847680D03*
X154352560Y-86847680D03*
X154352560Y-88696800D03*
X155852560Y-88696800D03*
X142258480Y-85852000D03*
X140758480Y-85852000D03*
X142258480Y-87619840D03*
X140758480Y-87619840D03*
X110690000Y-66890000D03*
X109190000Y-66890000D03*
X106640000Y-84470000D03*
X108140000Y-84470000D03*
X114480000Y-76600000D03*
X115980000Y-76600000D03*
X120758520Y-58011060D03*
X122258520Y-58011060D03*
X120758520Y-59756040D03*
X122258520Y-59756040D03*
D27*
X134432040Y-56643840D03*
X134432040Y-58143840D03*
X132709920Y-56674320D03*
X132709920Y-58174320D03*
D26*
X131143440Y-56921400D03*
X129643440Y-56921400D03*
D27*
X144729200Y-56079960D03*
X144729200Y-57579960D03*
X146601180Y-56079960D03*
X146601180Y-57579960D03*
D28*
X147550000Y-50950000D03*
D29*
X149010000Y-50930000D03*
X144390000Y-50950000D03*
D28*
X145850000Y-50950000D03*
D30*
X146690000Y-52510000D03*
D28*
X135700000Y-50950000D03*
D29*
X137160000Y-50930000D03*
X132540000Y-50950000D03*
D28*
X134000000Y-50950000D03*
D30*
X134840000Y-52510000D03*
D28*
X110470000Y-50980000D03*
D29*
X111930000Y-50960000D03*
X107310000Y-50980000D03*
D28*
X108770000Y-50980000D03*
D30*
X109610000Y-52540000D03*
D28*
X123070000Y-50950000D03*
D29*
X124530000Y-50930000D03*
X119910000Y-50950000D03*
D28*
X121370000Y-50950000D03*
D30*
X122210000Y-52510000D03*
D28*
X158710000Y-55370000D03*
D31*
X158730000Y-56830000D03*
X158710000Y-52210000D03*
D28*
X158710000Y-53670000D03*
D32*
X157150000Y-54510000D03*
D33*
X127350000Y-87080000D03*
X130350000Y-87080000D03*
X131850000Y-87080000D03*
D34*
X125950000Y-89940000D03*
X133250000Y-89940000D03*
X133250000Y-87730000D03*
X125950000Y-87730000D03*
D35*
X143891000Y-88734900D03*
X143891000Y-87464900D03*
X143891000Y-86194900D03*
X143891000Y-84924900D03*
X150241000Y-84924900D03*
X150241000Y-86194900D03*
X150241000Y-87464900D03*
X150241000Y-88734900D03*
D36*
X135038920Y-86131360D03*
X135038920Y-87081360D03*
X135038920Y-88031360D03*
X137238920Y-88031360D03*
X137238920Y-86131360D03*
D37*
X119526720Y-64129400D03*
X119526720Y-64629400D03*
X119526720Y-65129400D03*
X119526720Y-65629400D03*
X119526720Y-66129400D03*
X119526720Y-66629400D03*
X119526720Y-67129400D03*
X119526720Y-67629400D03*
X119526720Y-68129400D03*
X119526720Y-68629400D03*
X119526720Y-69129400D03*
X119526720Y-69629400D03*
X119526720Y-70129400D03*
X119526720Y-70629400D03*
X119526720Y-71129400D03*
X119526720Y-71629400D03*
X119526720Y-72129400D03*
X119526720Y-72629400D03*
X119526720Y-73129400D03*
X119526720Y-73629400D03*
X119526720Y-74129400D03*
X119526720Y-74629400D03*
X119526720Y-75129400D03*
X119526720Y-75629400D03*
X119526720Y-76129400D03*
D38*
X121426720Y-78029400D03*
X121926720Y-78029400D03*
X122426720Y-78029400D03*
X122926720Y-78029400D03*
X123426720Y-78029400D03*
X123926720Y-78029400D03*
X124426720Y-78029400D03*
X124926720Y-78029400D03*
X125426720Y-78029400D03*
X125926720Y-78029400D03*
X126426720Y-78029400D03*
X126926720Y-78029400D03*
X127426720Y-78029400D03*
X127926720Y-78029400D03*
X128426720Y-78029400D03*
X128926720Y-78029400D03*
X129426720Y-78029400D03*
X129926720Y-78029400D03*
X130426720Y-78029400D03*
X130926720Y-78029400D03*
X131426720Y-78029400D03*
X131926720Y-78029400D03*
X132426720Y-78029400D03*
X132926720Y-78029400D03*
X133426720Y-78029400D03*
D37*
X135326720Y-76129400D03*
X135326720Y-75629400D03*
X135326720Y-75129400D03*
X135326720Y-74629400D03*
X135326720Y-74129400D03*
X135326720Y-73629400D03*
X135326720Y-73129400D03*
X135326720Y-72629400D03*
X135326720Y-72129400D03*
X135326720Y-71629400D03*
X135326720Y-71129400D03*
X135326720Y-70629400D03*
X135326720Y-70129400D03*
X135326720Y-69629400D03*
X135326720Y-69129400D03*
X135326720Y-68629400D03*
X135326720Y-68129400D03*
X135326720Y-67629400D03*
X135326720Y-67129400D03*
X135326720Y-66629400D03*
X135326720Y-66129400D03*
X135326720Y-65629400D03*
X135326720Y-65129400D03*
X135326720Y-64629400D03*
X135326720Y-64129400D03*
D38*
X133426720Y-62229400D03*
X132926720Y-62229400D03*
X132426720Y-62229400D03*
X131926720Y-62229400D03*
X131426720Y-62229400D03*
X130926720Y-62229400D03*
X130426720Y-62229400D03*
X129926720Y-62229400D03*
X129426720Y-62229400D03*
X128926720Y-62229400D03*
X128426720Y-62229400D03*
X127926720Y-62229400D03*
X127426720Y-62229400D03*
X126926720Y-62229400D03*
X126426720Y-62229400D03*
X125926720Y-62229400D03*
X125426720Y-62229400D03*
X124926720Y-62229400D03*
X124426720Y-62229400D03*
X123926720Y-62229400D03*
X123426720Y-62229400D03*
X122926720Y-62229400D03*
X122426720Y-62229400D03*
X121926720Y-62229400D03*
X121426720Y-62229400D03*
D36*
X123060000Y-89350000D03*
X123060000Y-88400000D03*
X123060000Y-87450000D03*
X120860000Y-87450000D03*
X120860000Y-89350000D03*
D35*
X131755000Y-80745000D03*
X131755000Y-82015000D03*
X131755000Y-83285000D03*
X131755000Y-84555000D03*
X125405000Y-84555000D03*
X125405000Y-83285000D03*
X125405000Y-82015000D03*
X125405000Y-80745000D03*
D39*
X117074000Y-80092000D03*
X116574000Y-80092000D03*
X116074000Y-80092000D03*
X115574000Y-80092000D03*
X115074000Y-80092000D03*
X114574000Y-80092000D03*
D40*
X113874000Y-80792000D03*
X113874000Y-81292000D03*
X113874000Y-81792000D03*
X113874000Y-82292000D03*
X113874000Y-82792000D03*
X113874000Y-83292000D03*
D39*
X114574000Y-83992000D03*
X115074000Y-83992000D03*
X115574000Y-83992000D03*
X116074000Y-83992000D03*
X116574000Y-83992000D03*
X117074000Y-83992000D03*
D40*
X117774000Y-83292000D03*
X117774000Y-82792000D03*
X117774000Y-82292000D03*
X117774000Y-81792000D03*
X117774000Y-81292000D03*
X117774000Y-80792000D03*
D41*
X103530000Y-74600000D03*
X107230000Y-74600000D03*
D25*
X119020000Y-59790000D03*
X117520000Y-59790000D03*
D42*
X108170000Y-89280000D03*
X110070000Y-89280000D03*
X109120000Y-87280000D03*
D43*
X140050000Y-57850000D03*
X139350000Y-55700000D03*
X103900000Y-59350000D03*
X112030000Y-75090000D03*
X110720000Y-75500000D03*
X110690000Y-72100000D03*
X112780000Y-71930000D03*
X120900000Y-80120000D03*
X115760000Y-82050000D03*
X142372080Y-89062560D03*
X105700000Y-51860000D03*
X114970000Y-51580000D03*
X130700000Y-51190000D03*
X139560000Y-52560000D03*
X148530000Y-55540000D03*
X148500000Y-53780000D03*
X134920000Y-82240000D03*
X141020000Y-81260000D03*
X124420000Y-85920000D03*
X116060000Y-89440000D03*
X135834120Y-89199720D03*
X148833840Y-86365080D03*
X141792960Y-69819520D03*
X137383520Y-65024000D03*
X142991840Y-62931440D03*
X147401280Y-63052960D03*
X123657360Y-68437760D03*
X122346720Y-68453000D03*
X128305560Y-68407280D03*
X129021840Y-71501000D03*
X127635000Y-72095360D03*
X135800000Y-79650000D03*
X132610000Y-79650000D03*
X103540000Y-72180000D03*
X109700000Y-71730000D03*
X125928120Y-58353960D03*
X129950000Y-63900000D03*
X131338320Y-65303400D03*
X132725160Y-66644520D03*
X107510000Y-71050000D03*
X121130000Y-70000000D03*
X111740000Y-89860000D03*
X124460000Y-89860000D03*
X137617200Y-84734400D03*
X146944080Y-85755480D03*
X122670000Y-83760000D03*
X123810000Y-80790000D03*
X139578080Y-82275680D03*
X153395680Y-85364320D03*
X131550000Y-76610000D03*
X134420000Y-79350000D03*
X114480000Y-57510000D03*
X119750000Y-57790000D03*
X121650000Y-74450000D03*
X119440000Y-77200000D03*
X146141440Y-77581760D03*
X147340320Y-75184000D03*
X146060160Y-73578720D03*
X146019520Y-70510400D03*
X143865600Y-68498720D03*
X142422880Y-84124800D03*
X144068800Y-79573120D03*
X111930000Y-86810000D03*
X121360000Y-67420000D03*
X122330000Y-67530000D03*
X112720000Y-82510000D03*
X113290000Y-87740000D03*
X136855200Y-73289160D03*
X133776720Y-73258680D03*
X129799080Y-72161400D03*
X128625600Y-73060560D03*
X123946920Y-76215240D03*
X121523760Y-75925680D03*
X137261600Y-68681600D03*
X141061440Y-72583040D03*
X142247620Y-68958460D03*
X131206240Y-58991500D03*
X132427980Y-60198000D03*
X140817600Y-64442340D03*
X131823460Y-59618880D03*
X141241780Y-65186560D03*
X129959100Y-59425840D03*
X141150340Y-66088260D03*
X108770000Y-62020000D03*
X110010000Y-64620000D03*
X146751040Y-80893920D03*
X151180800Y-79735680D03*
X146837400Y-78943200D03*
X136946640Y-67757040D03*
X133220000Y-86390000D03*
X112525000Y-66515000D03*
X129600000Y-74210000D03*
X123400000Y-73090000D03*
X124690000Y-72440000D03*
X130110000Y-73400000D03*
X112760000Y-73460000D03*
X112280000Y-72740000D03*
X128790000Y-74900000D03*
X112900000Y-75000000D03*
X114330000Y-61460000D03*
X116920000Y-61390000D03*
X119530000Y-61110000D03*
X122240000Y-69830000D03*
X120350000Y-77900000D03*
X149350000Y-73010000D03*
X144780000Y-72640000D03*
X141790000Y-73310000D03*
X133540000Y-69450000D03*
X135260000Y-62500000D03*
X137560000Y-62510000D03*
X141790000Y-61680000D03*
X148300000Y-64220000D03*
X106900000Y-87940000D03*
X106880000Y-85850000D03*
X107900000Y-66800000D03*
X105100000Y-85220000D03*
X148437600Y-79522320D03*
X137388600Y-65897760D03*
X137083800Y-66796920D03*
X147477480Y-79629000D03*
X124070000Y-79610000D03*
X112090000Y-79270000D03*
X110680000Y-79550000D03*
X108240000Y-85770000D03*
X123952000Y-82804000D03*
X124660000Y-65880000D03*
X125660000Y-64820000D03*
X129680000Y-66830000D03*
X131170000Y-68320000D03*
X133010000Y-72380000D03*
X130300000Y-79690000D03*
X123952000Y-81788000D03*
X129600000Y-80430000D03*
X132080000Y-72540000D03*
X130450000Y-68840000D03*
X129010000Y-67580000D03*
X126390000Y-65550000D03*
X125420000Y-66670000D03*
X122800000Y-64080000D03*
X124940000Y-56970000D03*
X131090000Y-54680000D03*
X131040000Y-53110000D03*
X126130000Y-56940000D03*
X122000000Y-64370000D03*
X125720000Y-52280000D03*
X113930000Y-52530000D03*
X127330000Y-76570000D03*
X137100000Y-71140000D03*
X137550000Y-72340000D03*
X137550000Y-74040000D03*
X143160000Y-78290000D03*
X145010000Y-77760000D03*
X149450000Y-77090000D03*
X154400000Y-64150000D03*
X112620000Y-83320000D03*
X121870000Y-80090000D03*
X121250000Y-84030000D03*
X123050000Y-80180000D03*
D10*
X111780000Y-62710000D02*
X110420000Y-62710000D01*
X104050000Y-63320000D02*
X102620000Y-61890000D01*
X109810000Y-63320000D02*
X104050000Y-63320000D01*
X110420000Y-62710000D02*
X109810000Y-63320000D01*
X102620000Y-61890000D02*
X102080000Y-61890000D01*
X101270000Y-59870000D02*
X102800000Y-58340000D01*
X101270000Y-61080000D02*
X101270000Y-59870000D01*
X102080000Y-61890000D02*
X101270000Y-61080000D01*
X119080000Y-50880000D02*
X119840000Y-50880000D01*
X119840000Y-50880000D02*
X119910000Y-50950000D01*
X137900000Y-55550000D02*
X139200000Y-55550000D01*
X139885400Y-58014600D02*
X139885400Y-59825000D01*
X140050000Y-57850000D02*
X139885400Y-58014600D01*
X139200000Y-55550000D02*
X139350000Y-55700000D01*
X106740000Y-79130000D02*
X106340000Y-79130000D01*
X106340000Y-79130000D02*
X104970000Y-80500000D01*
X104970000Y-77420000D02*
X104970000Y-80500000D01*
X104970000Y-80500000D02*
X103210000Y-82260000D01*
X111780000Y-61210000D02*
X110980000Y-61210000D01*
X103900000Y-59920000D02*
X103900000Y-59350000D01*
X106710000Y-62730000D02*
X103900000Y-59920000D01*
X109460000Y-62730000D02*
X106710000Y-62730000D01*
X110980000Y-61210000D02*
X109460000Y-62730000D01*
X102620000Y-60390000D02*
X102860000Y-60390000D01*
X102860000Y-60390000D02*
X103900000Y-59350000D01*
X102290000Y-52690000D02*
X102290000Y-51460000D01*
X104920000Y-51080000D02*
X105700000Y-51860000D01*
X102670000Y-51080000D02*
X104920000Y-51080000D01*
X102290000Y-51460000D02*
X102670000Y-51080000D01*
X110690000Y-72100000D02*
X109380000Y-72470000D01*
X109250000Y-69160000D02*
X111860000Y-69160000D01*
X109160000Y-69070000D02*
X109250000Y-69160000D01*
X108680000Y-71380000D02*
X109160000Y-69070000D01*
X109380000Y-72470000D02*
X108680000Y-71380000D01*
X112020000Y-75100000D02*
X112030000Y-75090000D01*
X111120000Y-75100000D02*
X112020000Y-75100000D01*
X110720000Y-75500000D02*
X111120000Y-75100000D01*
X112730000Y-71980000D02*
X110690000Y-72100000D01*
X112780000Y-71930000D02*
X112730000Y-71980000D01*
X110200000Y-90810000D02*
X110200000Y-89410000D01*
X110200000Y-89410000D02*
X110070000Y-89280000D01*
X148530000Y-55540000D02*
X149200000Y-55540000D01*
X157710000Y-51210000D02*
X158710000Y-52210000D01*
X153530000Y-51210000D02*
X157710000Y-51210000D01*
X149200000Y-55540000D02*
X153530000Y-51210000D01*
X114750000Y-89390000D02*
X116010000Y-89390000D01*
X116010000Y-89390000D02*
X116060000Y-89440000D01*
X116010000Y-87750000D02*
X117620000Y-87750000D01*
X117620000Y-87750000D02*
X117630000Y-87760000D01*
X116020000Y-85890000D02*
X117610000Y-85890000D01*
X117610000Y-85890000D02*
X117630000Y-85910000D01*
X117074000Y-80092000D02*
X117074000Y-79236000D01*
X118690000Y-80120000D02*
X120900000Y-80120000D01*
X117670000Y-79100000D02*
X118690000Y-80120000D01*
X117210000Y-79100000D02*
X117670000Y-79100000D01*
X117074000Y-79236000D02*
X117210000Y-79100000D01*
X113874000Y-82792000D02*
X115018000Y-82792000D01*
X121953436Y-79360000D02*
X121953436Y-78056116D01*
X121966718Y-79373282D02*
X121953436Y-79360000D01*
X121976718Y-79373282D02*
X121966718Y-79373282D01*
X121930000Y-79420000D02*
X121976718Y-79373282D01*
X121600000Y-79420000D02*
X121930000Y-79420000D01*
X120900000Y-80120000D02*
X121600000Y-79420000D01*
X115018000Y-82792000D02*
X115760000Y-82050000D01*
X121953436Y-78056116D02*
X121926720Y-78029400D01*
X122810000Y-85270000D02*
X123770000Y-85270000D01*
X123770000Y-85270000D02*
X124420000Y-85920000D01*
X117630000Y-85910000D02*
X117630000Y-85540000D01*
X117630000Y-85540000D02*
X118270000Y-84900000D01*
X119050000Y-84900000D02*
X121146000Y-82804000D01*
X118270000Y-84900000D02*
X119050000Y-84900000D01*
X117630000Y-85910000D02*
X117630000Y-85470000D01*
X117074000Y-84914000D02*
X117074000Y-83992000D01*
X117630000Y-85470000D02*
X117074000Y-84914000D01*
X121146000Y-82804000D02*
X122884000Y-82804000D01*
X124635000Y-84555000D02*
X125405000Y-84555000D01*
X122884000Y-82804000D02*
X124635000Y-84555000D01*
X119080000Y-50880000D02*
X119620000Y-50880000D01*
X119620000Y-50880000D02*
X119830000Y-50670000D01*
X118240000Y-51720000D02*
X118240000Y-52610000D01*
X118970000Y-53530000D02*
X122010000Y-53640000D01*
X118930000Y-53300000D02*
X118970000Y-53530000D01*
X118240000Y-52610000D02*
X118930000Y-53300000D01*
X119350000Y-50610000D02*
X119080000Y-50880000D01*
X119080000Y-50880000D02*
X118240000Y-51720000D01*
X105700000Y-51860000D02*
X107000000Y-50560000D01*
X115110000Y-51720000D02*
X114970000Y-51580000D01*
X118240000Y-51720000D02*
X115110000Y-51720000D01*
X107000000Y-50560000D02*
X107340000Y-50560000D01*
X143080000Y-52580000D02*
X139580000Y-52580000D01*
X131350000Y-51690000D02*
X132480000Y-50560000D01*
X131200000Y-51690000D02*
X131350000Y-51690000D01*
X130700000Y-51190000D02*
X131200000Y-51690000D01*
X139580000Y-52580000D02*
X139560000Y-52560000D01*
X144390000Y-50670000D02*
X143150000Y-50670000D01*
X149485400Y-56495400D02*
X149485400Y-58925000D01*
X148530000Y-55540000D02*
X149485400Y-56495400D01*
X143300000Y-53780000D02*
X148500000Y-53780000D01*
X143080000Y-53560000D02*
X143300000Y-53780000D01*
X143080000Y-50740000D02*
X143080000Y-52580000D01*
X143080000Y-52580000D02*
X143080000Y-53560000D01*
X143150000Y-50670000D02*
X143080000Y-50740000D01*
X122010000Y-53640000D02*
X122430000Y-56120000D01*
X122430000Y-56120000D02*
X124400000Y-58090000D01*
X124400000Y-58090000D02*
X124400000Y-59597680D01*
X124400000Y-59597680D02*
X124522800Y-59720480D01*
X149485400Y-60960000D02*
X151430000Y-63030000D01*
X151430000Y-63030000D02*
X156690000Y-67700000D01*
X142476430Y-59611419D02*
X140098981Y-59611419D01*
X140098981Y-59611419D02*
X139885400Y-59825000D01*
X133500000Y-83390000D02*
X133770000Y-83390000D01*
X133770000Y-83390000D02*
X134920000Y-82240000D01*
X141020000Y-81260000D02*
X141083600Y-81323600D01*
X141083600Y-81323600D02*
X141083600Y-82316320D01*
X139190000Y-81020000D02*
X139787280Y-81020000D01*
X139787280Y-81020000D02*
X141083600Y-82316320D01*
X125405000Y-80745000D02*
X125405000Y-82015000D01*
X125405000Y-82015000D02*
X125405000Y-83285000D01*
X125405000Y-83285000D02*
X125405000Y-84555000D01*
X125405000Y-84555000D02*
X124390000Y-85570000D01*
X124390000Y-85570000D02*
X124390000Y-85890000D01*
X124390000Y-85890000D02*
X124420000Y-85920000D01*
X116060000Y-89440000D02*
X116090000Y-89410000D01*
X116090000Y-89410000D02*
X117630000Y-89410000D01*
X117630000Y-87760000D02*
X117630000Y-89410000D01*
X117630000Y-89410000D02*
X117630000Y-90630000D01*
X117630000Y-90630000D02*
X117450000Y-90810000D01*
X123060000Y-88400000D02*
X122040000Y-88400000D01*
X121940000Y-88500000D02*
X121940000Y-90810000D01*
X122040000Y-88400000D02*
X121940000Y-88500000D01*
X135038920Y-88404520D02*
X134665480Y-88404520D01*
X103210000Y-84550000D02*
X103210000Y-82260000D01*
X106200000Y-87540000D02*
X103210000Y-84550000D01*
X106200000Y-89740000D02*
X106200000Y-87540000D01*
X107270000Y-90810000D02*
X106200000Y-89740000D01*
X134490000Y-90810000D02*
X121940000Y-90810000D01*
X121940000Y-90810000D02*
X117450000Y-90810000D01*
X117450000Y-90810000D02*
X110200000Y-90810000D01*
X110200000Y-90810000D02*
X107270000Y-90810000D01*
X134610000Y-90930000D02*
X134490000Y-90810000D01*
X134610000Y-88460000D02*
X134610000Y-90930000D01*
X134665480Y-88404520D02*
X134610000Y-88460000D01*
X135038920Y-88404520D02*
X135038920Y-87081360D01*
X135834120Y-89199720D02*
X135038920Y-88404520D01*
X135038920Y-87081360D02*
X135008440Y-87111840D01*
X140958000Y-89428320D02*
X142006320Y-89428320D01*
X149004020Y-86194900D02*
X150241000Y-86194900D01*
X148833840Y-86365080D02*
X149004020Y-86194900D01*
X142006320Y-89428320D02*
X142372080Y-89062560D01*
X155852560Y-86847680D02*
X155852560Y-86642640D01*
X155852560Y-86642640D02*
X153428650Y-84218730D01*
X152664160Y-86991760D02*
X151670320Y-86991760D01*
X151670320Y-86991760D02*
X151452480Y-86773920D01*
X145980000Y-74430000D02*
X143480000Y-79090000D01*
X142221520Y-81178400D02*
X141083600Y-82316320D01*
X142971520Y-81178400D02*
X142221520Y-81178400D01*
X143480000Y-79090000D02*
X142971520Y-81178400D01*
X150241000Y-88734900D02*
X151508460Y-88734900D01*
X151452480Y-88678920D02*
X151452480Y-86773920D01*
X151452480Y-86773920D02*
X151452480Y-86194900D01*
X151508460Y-88734900D02*
X151452480Y-88678920D01*
X150241000Y-86194900D02*
X151452480Y-86194900D01*
X151452480Y-86194900D02*
X153428650Y-84218730D01*
X153428650Y-84218730D02*
X154285200Y-83362180D01*
X124522800Y-59720480D02*
X124522800Y-60186000D01*
X124426720Y-60282080D02*
X124426720Y-62229400D01*
X124522800Y-60186000D02*
X124426720Y-60282080D01*
X154285200Y-78522180D02*
X153582580Y-78522180D01*
X153582580Y-78522180D02*
X149485400Y-74425000D01*
X154405200Y-79642180D02*
X154405200Y-78642180D01*
X154405200Y-78642180D02*
X154285200Y-78522180D01*
X154285200Y-78522180D02*
X156975200Y-78522180D01*
X156975200Y-78522180D02*
X157525200Y-79072180D01*
X157525200Y-79072180D02*
X157525200Y-81902180D01*
X157525200Y-81902180D02*
X157285200Y-82142180D01*
X157285200Y-82142180D02*
X157285200Y-83672180D01*
X157285200Y-83672180D02*
X156975200Y-83362180D01*
X156975200Y-83362180D02*
X154285200Y-83362180D01*
X135326720Y-64629400D02*
X136988920Y-64629400D01*
X137383520Y-65024000D02*
X136988920Y-64629400D01*
X139885400Y-74425000D02*
X145980000Y-74430000D01*
X145980000Y-74430000D02*
X149485400Y-74425000D01*
X149485400Y-74425000D02*
X147401280Y-72340880D01*
X147401280Y-72340880D02*
X147401280Y-63052960D01*
X149485400Y-58925000D02*
X149485400Y-60960000D01*
X149485400Y-60960000D02*
X149485400Y-60968840D01*
X147401280Y-63052960D02*
X149485400Y-60968840D01*
X139385400Y-69975000D02*
X141792960Y-69819520D01*
X141792960Y-69819520D02*
X142328360Y-69975000D01*
X142328360Y-69975000D02*
X142991840Y-69311520D01*
X142991840Y-69311520D02*
X142991840Y-62931440D01*
X142991840Y-62931440D02*
X142476430Y-59611419D01*
X142476430Y-59611419D02*
X142470000Y-59570000D01*
X119526720Y-68629400D02*
X122170320Y-68629400D01*
X123687840Y-68407280D02*
X128305560Y-68407280D01*
X123657360Y-68437760D02*
X123687840Y-68407280D01*
X122170320Y-68629400D02*
X122346720Y-68453000D01*
X121926720Y-78029400D02*
X121926720Y-76660640D01*
X123017280Y-75570080D02*
X123017280Y-75129400D01*
X121926720Y-76660640D02*
X123017280Y-75570080D01*
X124426720Y-62229400D02*
X124426720Y-64528440D01*
X124426720Y-64528440D02*
X128305560Y-68407280D01*
X119526720Y-75129400D02*
X123017280Y-75129400D01*
X123017280Y-75129400D02*
X124600960Y-75129400D01*
X133721740Y-64629400D02*
X135326720Y-64629400D01*
X129075180Y-69275960D02*
X133721740Y-64629400D01*
X129075180Y-71447660D02*
X129075180Y-69275960D01*
X129021840Y-71501000D02*
X129075180Y-71447660D01*
X124600960Y-75129400D02*
X127635000Y-72095360D01*
X119526720Y-75129400D02*
X117699800Y-75129400D01*
X117236360Y-73629400D02*
X119526720Y-73629400D01*
X117038120Y-73827640D02*
X117236360Y-73629400D01*
X117038120Y-74467720D02*
X117038120Y-73827640D01*
X117699800Y-75129400D02*
X117038120Y-74467720D01*
X132926720Y-78029400D02*
X132926720Y-79333280D01*
X137170000Y-81020000D02*
X137690000Y-81020000D01*
X135800000Y-79650000D02*
X137170000Y-81020000D01*
X132926720Y-79333280D02*
X132610000Y-79650000D01*
X110150000Y-70670000D02*
X110150000Y-71240000D01*
X103530000Y-72190000D02*
X103530000Y-74600000D01*
X103540000Y-72180000D02*
X103530000Y-72190000D01*
X109700000Y-71690000D02*
X109700000Y-71730000D01*
X110150000Y-71240000D02*
X109700000Y-71690000D01*
X110150000Y-70670000D02*
X110150000Y-70140000D01*
X117480600Y-69629400D02*
X119526720Y-69629400D01*
X117200000Y-69910000D02*
X117480600Y-69629400D01*
X110380000Y-69910000D02*
X117200000Y-69910000D01*
X110150000Y-70140000D02*
X110380000Y-69910000D01*
X135326720Y-65129400D02*
X134240280Y-65129400D01*
X126022800Y-58448640D02*
X126022800Y-59720480D01*
X125928120Y-58353960D02*
X126022800Y-58448640D01*
X129890520Y-63855600D02*
X129950000Y-63900000D01*
X131338320Y-65303400D02*
X129890520Y-63855600D01*
X134240280Y-65129400D02*
X132725160Y-66644520D01*
X106470000Y-77420000D02*
X106470000Y-75360000D01*
X106470000Y-75360000D02*
X107230000Y-74600000D01*
X107230000Y-71330000D02*
X107230000Y-74600000D01*
X107510000Y-71050000D02*
X107230000Y-71330000D01*
X119526720Y-70129400D02*
X121000600Y-70129400D01*
X121000600Y-70129400D02*
X121130000Y-70000000D01*
X119526720Y-70629400D02*
X111890600Y-70629400D01*
X111890600Y-70629400D02*
X111860000Y-70660000D01*
X142583600Y-82316320D02*
X142583600Y-82355120D01*
X142583600Y-82355120D02*
X143891000Y-83662520D01*
X143891000Y-83662520D02*
X143891000Y-84924900D01*
X143891000Y-84924900D02*
X150241000Y-84924900D01*
X150241000Y-84924900D02*
X151668480Y-83497420D01*
X151668480Y-83497420D02*
X151668480Y-82341720D01*
X151668480Y-82341720D02*
X151768020Y-82242180D01*
X151768020Y-82242180D02*
X154405200Y-82242180D01*
X113250000Y-89390000D02*
X112210000Y-89390000D01*
X112210000Y-89390000D02*
X111740000Y-89860000D01*
X124460000Y-90040000D02*
X124460000Y-89860000D01*
X124460000Y-89350000D02*
X124460000Y-90040000D01*
X111740000Y-89860000D02*
X111760000Y-89860000D01*
X123060000Y-89350000D02*
X124460000Y-89350000D01*
X124460000Y-89350000D02*
X124380000Y-89350000D01*
X125660000Y-85750000D02*
X130350000Y-85750000D01*
X124720000Y-86690000D02*
X125660000Y-85750000D01*
X124720000Y-89010000D02*
X124720000Y-86690000D01*
X124380000Y-89350000D02*
X124720000Y-89010000D01*
X130350000Y-87080000D02*
X130350000Y-85750000D01*
X134610000Y-85110000D02*
X136154800Y-85434800D01*
X131540000Y-85800000D02*
X134610000Y-85110000D01*
X130350000Y-85750000D02*
X131540000Y-85800000D01*
X135038920Y-86131360D02*
X135458240Y-86131360D01*
X135458240Y-86131360D02*
X136154800Y-85434800D01*
X136154800Y-85434800D02*
X136855200Y-84734400D01*
X136855200Y-84734400D02*
X137617200Y-84734400D01*
X146944080Y-85755480D02*
X147462240Y-86273640D01*
X147462240Y-86273640D02*
X147462240Y-88734900D01*
X143891000Y-88734900D02*
X147462240Y-88734900D01*
X147462240Y-88734900D02*
X147561300Y-88734900D01*
X154206640Y-90342720D02*
X155852560Y-88696800D01*
X149169120Y-90342720D02*
X154206640Y-90342720D01*
X147561300Y-88734900D02*
X149169120Y-90342720D01*
X121310000Y-85270000D02*
X121310000Y-85120000D01*
X121310000Y-85120000D02*
X122670000Y-83760000D01*
X123810000Y-80790000D02*
X124860000Y-79740000D01*
X124860000Y-79740000D02*
X124970000Y-79740000D01*
X124970000Y-79740000D02*
X124926720Y-79696720D01*
X124926720Y-79696720D02*
X124926720Y-78029400D01*
X139578080Y-82275680D02*
X137345680Y-82275680D01*
X153395680Y-85890800D02*
X153395680Y-85364320D01*
X154352560Y-86847680D02*
X153395680Y-85890800D01*
X124926720Y-76993280D02*
X124926720Y-78029400D01*
X126410000Y-75750000D02*
X124926720Y-76993280D01*
X131450000Y-76510000D02*
X126410000Y-75750000D01*
X131550000Y-76610000D02*
X131450000Y-76510000D01*
X137345680Y-82275680D02*
X134420000Y-79350000D01*
X154352560Y-88696800D02*
X154352560Y-86847680D01*
X136400000Y-55550000D02*
X136400000Y-56643840D01*
X136400000Y-56643840D02*
X136400000Y-56500000D01*
X112776000Y-78016000D02*
X109354000Y-78016000D01*
X109354000Y-78016000D02*
X108240000Y-79130000D01*
X120758520Y-58011060D02*
X119971060Y-58011060D01*
X112570000Y-55600000D02*
X106220000Y-55600000D01*
X114480000Y-57510000D02*
X112570000Y-55600000D01*
X119971060Y-58011060D02*
X119750000Y-57790000D01*
X103790000Y-52690000D02*
X103790000Y-53170000D01*
X103790000Y-53170000D02*
X106220000Y-55600000D01*
X112776000Y-78016000D02*
X112776000Y-78726000D01*
X112776000Y-78726000D02*
X113220000Y-79170000D01*
X112508000Y-81400000D02*
X112508000Y-79882000D01*
X121650070Y-74449930D02*
X121650070Y-74370070D01*
X121650000Y-74450000D02*
X121650070Y-74449930D01*
X119380000Y-77260000D02*
X119440000Y-77200000D01*
X113950000Y-77500000D02*
X119380000Y-77260000D01*
X112508000Y-79882000D02*
X113220000Y-79170000D01*
X113220000Y-79170000D02*
X113950000Y-77500000D01*
X114520000Y-85890000D02*
X114520000Y-85000000D01*
X114520000Y-85000000D02*
X114574000Y-84946000D01*
X112508000Y-81792000D02*
X112508000Y-81400000D01*
X112508000Y-81400000D02*
X112508000Y-81332000D01*
X112548000Y-81292000D02*
X113874000Y-81292000D01*
X112508000Y-81332000D02*
X112548000Y-81292000D01*
X114574000Y-83992000D02*
X114574000Y-84946000D01*
X112508000Y-81792000D02*
X113874000Y-81792000D01*
X111950000Y-82350000D02*
X112508000Y-81792000D01*
X111950000Y-83960000D02*
X111950000Y-82350000D01*
X113040000Y-85050000D02*
X111950000Y-83960000D01*
X114470000Y-85050000D02*
X113040000Y-85050000D01*
X114574000Y-84946000D02*
X114470000Y-85050000D01*
X131755000Y-82015000D02*
X133375000Y-82015000D01*
X133375000Y-82015000D02*
X133500000Y-81890000D01*
X131755000Y-82015000D02*
X131755000Y-80745000D01*
X131755000Y-80745000D02*
X131920000Y-80910000D01*
X131920000Y-80910000D02*
X133860000Y-80910000D01*
X133860000Y-80910000D02*
X134344560Y-80425440D01*
X138440160Y-83372960D02*
X137292080Y-83372960D01*
X133426720Y-79507600D02*
X133426720Y-78029400D01*
X137292080Y-83372960D02*
X134344560Y-80425440D01*
X134344560Y-80425440D02*
X133426720Y-79507600D01*
X137238920Y-86131360D02*
X137571520Y-86131360D01*
X137571520Y-86131360D02*
X138440160Y-85262720D01*
X140512800Y-56643840D02*
X140524800Y-56643840D01*
X146141440Y-76382880D02*
X146141440Y-77581760D01*
X147340320Y-75184000D02*
X146141440Y-76382880D01*
X146060160Y-70551040D02*
X146060160Y-73578720D01*
X146019520Y-70510400D02*
X146060160Y-70551040D01*
X143865600Y-59984640D02*
X143865600Y-68498720D01*
X140524800Y-56643840D02*
X143865600Y-59984640D01*
X139374880Y-86210240D02*
X139374880Y-86197440D01*
X139374880Y-86197440D02*
X138440160Y-85262720D01*
X138440160Y-85262720D02*
X138440160Y-83372960D01*
X138440160Y-83372960D02*
X138704320Y-83108800D01*
X138704320Y-83108800D02*
X140093600Y-83108800D01*
X140093600Y-83108800D02*
X141170560Y-84185760D01*
X141170560Y-84185760D02*
X142341600Y-84185760D01*
X142402560Y-84124800D02*
X142422880Y-84124800D01*
X142341600Y-84185760D02*
X142402560Y-84124800D01*
X144111280Y-79615600D02*
X144111280Y-80954880D01*
X144068800Y-79573120D02*
X144111280Y-79615600D01*
X120758520Y-58011060D02*
X120758520Y-59756040D01*
X120758520Y-59756040D02*
X121426720Y-60424240D01*
X121426720Y-60424240D02*
X121426720Y-62229400D01*
X138094720Y-64597280D02*
X135157042Y-60998742D01*
X135157042Y-60998742D02*
X140358560Y-56643840D01*
X139385400Y-67775000D02*
X138346360Y-67775000D01*
X137626840Y-64129400D02*
X135326720Y-64129400D01*
X138094720Y-64597280D02*
X137626840Y-64129400D01*
X138094720Y-67523360D02*
X138094720Y-64597280D01*
X138346360Y-67775000D02*
X138094720Y-67523360D01*
X134432040Y-56643840D02*
X140358560Y-56643840D01*
X140358560Y-56643840D02*
X140512800Y-56643840D01*
X140512800Y-56643840D02*
X140556680Y-56643840D01*
X140556680Y-56643840D02*
X141120560Y-56079960D01*
X141120560Y-56079960D02*
X146601180Y-56079960D01*
X134432040Y-56643840D02*
X132740400Y-56643840D01*
X132740400Y-56643840D02*
X132462840Y-56921400D01*
X132462840Y-56921400D02*
X131143440Y-56921400D01*
X128550000Y-72030000D02*
X128435100Y-72270620D01*
X122426720Y-76815960D02*
X122426720Y-78029400D01*
X123663278Y-75579402D02*
X122426720Y-76815960D01*
X124867238Y-75579402D02*
X123663278Y-75579402D01*
X127269240Y-73177400D02*
X124867238Y-75579402D01*
X127528320Y-73177400D02*
X127269240Y-73177400D01*
X128435100Y-72270620D02*
X127528320Y-73177400D01*
X133426720Y-78029400D02*
X133380000Y-76990000D01*
X133380000Y-76990000D02*
X132160000Y-76080000D01*
X132160000Y-76080000D02*
X130803653Y-75789545D01*
X130803653Y-75789545D02*
X128501549Y-75610121D01*
X128501549Y-75610121D02*
X126695276Y-75331658D01*
X126695276Y-75331658D02*
X128860000Y-73790000D01*
X128860000Y-73790000D02*
X129560000Y-72980000D01*
X129560000Y-72980000D02*
X128550000Y-72030000D01*
X128358900Y-69273420D02*
X128508760Y-69123560D01*
X128358900Y-71828660D02*
X128358900Y-69273420D01*
X128550000Y-72030000D02*
X128358900Y-71828660D01*
X123000260Y-69123560D02*
X128508760Y-69123560D01*
X133502920Y-64129400D02*
X135326720Y-64129400D01*
X128508760Y-69123560D02*
X133502920Y-64129400D01*
X123000260Y-69129400D02*
X123000260Y-69123560D01*
X123000260Y-69123560D02*
X122980000Y-67100000D01*
X121290000Y-66370000D02*
X121426720Y-62229400D01*
X122980000Y-67100000D02*
X121290000Y-66370000D01*
X120909080Y-73253600D02*
X120909080Y-73251060D01*
X120909080Y-73251060D02*
X121650070Y-74370070D01*
X123000260Y-69129400D02*
X119526720Y-69129400D01*
X123055380Y-69184520D02*
X123000260Y-69129400D01*
X121650070Y-74370070D02*
X123055380Y-71104760D01*
X123055380Y-71104760D02*
X123055380Y-69184520D01*
X120909080Y-74234040D02*
X120909080Y-73253600D01*
X120784880Y-73129400D02*
X119526720Y-73129400D01*
X120909080Y-73253600D02*
X120784880Y-73129400D01*
X119526720Y-74629400D02*
X120872640Y-74629400D01*
X120804440Y-74129400D02*
X119526720Y-74129400D01*
X120909080Y-74234040D02*
X120804440Y-74129400D01*
X120909080Y-74592960D02*
X120909080Y-74234040D01*
X120872640Y-74629400D02*
X120909080Y-74592960D01*
X139458000Y-89428320D02*
X138635880Y-89428320D01*
X138635880Y-89428320D02*
X137238920Y-88031360D01*
X120860000Y-87450000D02*
X120860000Y-87210000D01*
X120860000Y-87210000D02*
X119790000Y-86140000D01*
X119790000Y-86140000D02*
X119090000Y-86140000D01*
X111930000Y-86830000D02*
X111920000Y-86830000D01*
X111930000Y-86810000D02*
X111930000Y-86830000D01*
X116560000Y-86830000D02*
X111920000Y-86830000D01*
X111920000Y-86830000D02*
X111920000Y-86820000D01*
X119130000Y-87760000D02*
X119130000Y-87050000D01*
X116190000Y-86830000D02*
X116170000Y-86810000D01*
X118910000Y-86830000D02*
X116560000Y-86830000D01*
X116560000Y-86830000D02*
X116190000Y-86830000D01*
X119130000Y-87050000D02*
X118910000Y-86830000D01*
X119130000Y-87760000D02*
X119130000Y-89410000D01*
X119130000Y-89410000D02*
X120800000Y-89410000D01*
X120800000Y-89410000D02*
X120860000Y-89350000D01*
X119020000Y-59790000D02*
X119120000Y-56900000D01*
X119120000Y-56900000D02*
X120910000Y-56140000D01*
X121150600Y-67629400D02*
X119526720Y-67629400D01*
X121360000Y-67420000D02*
X121150600Y-67629400D01*
X117520000Y-59790000D02*
X117520000Y-57830000D01*
X117520000Y-57830000D02*
X120930000Y-54420000D01*
X122330000Y-67530000D02*
X121730600Y-68129400D01*
X121730600Y-68129400D02*
X119526720Y-68129400D01*
X117774000Y-82792000D02*
X119634000Y-82792000D01*
X119634000Y-82792000D02*
X119646000Y-82804000D01*
X114510000Y-87750000D02*
X113300000Y-87750000D01*
X112938000Y-82292000D02*
X113874000Y-82292000D01*
X112720000Y-82510000D02*
X112938000Y-82292000D01*
X113300000Y-87750000D02*
X113290000Y-87740000D01*
X119526720Y-75629400D02*
X121227480Y-75629400D01*
X136869360Y-73275000D02*
X139385400Y-73275000D01*
X136855200Y-73289160D02*
X136869360Y-73275000D01*
X130896360Y-73258680D02*
X133776720Y-73258680D01*
X129799080Y-72161400D02*
X130896360Y-73258680D01*
X127894080Y-73792080D02*
X128625600Y-73060560D01*
X127482600Y-73792080D02*
X127894080Y-73792080D01*
X125013720Y-76260960D02*
X127482600Y-73792080D01*
X123992640Y-76260960D02*
X125013720Y-76260960D01*
X123946920Y-76215240D02*
X123992640Y-76260960D01*
X121227480Y-75629400D02*
X121523760Y-75925680D01*
X139385400Y-71075000D02*
X142630440Y-71075000D01*
X144729200Y-68976240D02*
X144729200Y-57579960D01*
X142630440Y-71075000D02*
X144729200Y-68976240D01*
X139385400Y-71075000D02*
X138760920Y-71075000D01*
X138760920Y-71075000D02*
X136815320Y-69129400D01*
X136815320Y-69129400D02*
X135326720Y-69129400D01*
X141061440Y-72583040D02*
X143316960Y-72156320D01*
X146601180Y-68872100D02*
X146601180Y-57579960D01*
X143316960Y-72156320D02*
X146601180Y-68872100D01*
X139385400Y-72175000D02*
X141042760Y-72601720D01*
X137250040Y-68670040D02*
X135326720Y-68629400D01*
X137261600Y-68681600D02*
X137250040Y-68670040D01*
X141042760Y-72601720D02*
X141061440Y-72583040D01*
X131426720Y-62229400D02*
X131426720Y-60949340D01*
X142164160Y-68875000D02*
X139385400Y-68875000D01*
X142247620Y-68958460D02*
X142164160Y-68875000D01*
X131183380Y-58991500D02*
X131206240Y-58991500D01*
X131000500Y-59174380D02*
X131183380Y-58991500D01*
X131000500Y-60523120D02*
X131000500Y-59174380D01*
X131426720Y-60949340D02*
X131000500Y-60523120D01*
X132427980Y-60198000D02*
X132427980Y-60147900D01*
X132427980Y-60147900D02*
X134432040Y-58143840D01*
X139385400Y-64475000D02*
X140784940Y-64475000D01*
X132426720Y-60199260D02*
X132426720Y-62229400D01*
X132427980Y-60198000D02*
X132426720Y-60199260D01*
X140784940Y-64475000D02*
X140817600Y-64442340D01*
X131823460Y-59618880D02*
X131856480Y-59618880D01*
X132709920Y-58765440D02*
X132709920Y-58174320D01*
X131856480Y-59618880D02*
X132709920Y-58765440D01*
X139385400Y-65575000D02*
X140749200Y-65575000D01*
X131926720Y-60661940D02*
X131926720Y-62229400D01*
X131572000Y-60307220D02*
X131926720Y-60661940D01*
X131572000Y-59870340D02*
X131572000Y-60307220D01*
X131823460Y-59618880D02*
X131572000Y-59870340D01*
X141137640Y-65186560D02*
X141241780Y-65186560D01*
X140749200Y-65575000D02*
X141137640Y-65186560D01*
X129643440Y-56921400D02*
X129643440Y-59110180D01*
X129643440Y-59110180D02*
X129959100Y-59425840D01*
X139385400Y-66675000D02*
X140517880Y-66675000D01*
X129926720Y-59458220D02*
X129926720Y-62229400D01*
X129959100Y-59425840D02*
X129926720Y-59458220D01*
X141104620Y-66088260D02*
X141150340Y-66088260D01*
X140517880Y-66675000D02*
X141104620Y-66088260D01*
X119526720Y-66629400D02*
X114039400Y-66629400D01*
X104080000Y-57460000D02*
X102220000Y-55600000D01*
X104080000Y-57990000D02*
X104080000Y-57460000D01*
X108770000Y-62020000D02*
X104080000Y-57990000D01*
X110600000Y-65210000D02*
X110010000Y-64620000D01*
X112620000Y-65210000D02*
X110600000Y-65210000D01*
X114039400Y-66629400D02*
X112620000Y-65210000D01*
X101300000Y-58340000D02*
X101300000Y-56520000D01*
X101300000Y-56520000D02*
X102220000Y-55600000D01*
X139570560Y-84185760D02*
X139570560Y-84664080D01*
X139570560Y-84664080D02*
X140758480Y-85852000D01*
X139374880Y-87810240D02*
X140568080Y-87810240D01*
X140568080Y-87810240D02*
X140758480Y-87619840D01*
X112776000Y-76416000D02*
X114296000Y-76416000D01*
X114296000Y-76416000D02*
X114480000Y-76600000D01*
X149919120Y-82646520D02*
X150205440Y-82646520D01*
X151259780Y-81592180D02*
X154405200Y-81592180D01*
X150205440Y-82646520D02*
X151259780Y-81592180D01*
X151668480Y-80954880D02*
X151668480Y-80223360D01*
X146690080Y-80954880D02*
X145611280Y-80954880D01*
X146751040Y-80893920D02*
X146690080Y-80954880D01*
X151668480Y-80223360D02*
X151180800Y-79735680D01*
X149959760Y-80954880D02*
X151668480Y-80954880D01*
X151668480Y-80954880D02*
X154392500Y-80954880D01*
X154392500Y-80954880D02*
X154405200Y-80942180D01*
X135326720Y-67129400D02*
X136319000Y-67129400D01*
X152806400Y-80264000D02*
X154405200Y-80292180D01*
X151465280Y-77724000D02*
X152806400Y-80264000D01*
X147096480Y-78684120D02*
X151465280Y-77724000D01*
X146837400Y-78943200D02*
X147096480Y-78684120D01*
X136319000Y-67129400D02*
X136946640Y-67757040D01*
X131850000Y-87080000D02*
X131850000Y-86390000D01*
X131850000Y-86390000D02*
X133220000Y-86390000D01*
X110690000Y-66890000D02*
X112150000Y-66890000D01*
X112150000Y-66890000D02*
X112525000Y-66515000D01*
X133809400Y-75129400D02*
X132890000Y-74210000D01*
X132890000Y-74210000D02*
X129600000Y-74210000D01*
X133809400Y-75129400D02*
X135326720Y-75129400D01*
X124040000Y-73090000D02*
X123400000Y-73090000D01*
X124690000Y-72440000D02*
X124040000Y-73090000D01*
X135326720Y-74629400D02*
X134089400Y-74629400D01*
X130450000Y-73740000D02*
X130110000Y-73400000D01*
X133200000Y-73740000D02*
X130450000Y-73740000D01*
X134089400Y-74629400D02*
X133200000Y-73740000D01*
X119526720Y-71629400D02*
X117660600Y-71629400D01*
X115830000Y-73460000D02*
X112760000Y-73460000D01*
X117660600Y-71629400D02*
X115830000Y-73460000D01*
X117350600Y-71129400D02*
X119526720Y-71129400D01*
X115690000Y-72790000D02*
X117350600Y-71129400D01*
X112330000Y-72790000D02*
X115690000Y-72790000D01*
X112280000Y-72740000D02*
X112330000Y-72790000D01*
X135326720Y-75629400D02*
X133319400Y-75629400D01*
X132590000Y-74900000D02*
X128790000Y-74900000D01*
X133319400Y-75629400D02*
X132590000Y-74900000D01*
X119526720Y-72129400D02*
X121310600Y-72129400D01*
X112900000Y-75000000D02*
X111780000Y-73880000D01*
X111780000Y-73880000D02*
X110640000Y-73880000D01*
X110640000Y-73880000D02*
X109910000Y-73150000D01*
X109910000Y-73150000D02*
X109000000Y-72890000D01*
X109000000Y-72890000D02*
X108130000Y-71460000D01*
X108130000Y-71460000D02*
X108650000Y-68800000D01*
X108650000Y-68800000D02*
X106890000Y-67040000D01*
X106890000Y-67040000D02*
X106890000Y-66590000D01*
X106890000Y-66590000D02*
X108120000Y-65360000D01*
X108120000Y-65360000D02*
X108510000Y-64270000D01*
X108510000Y-64270000D02*
X109910000Y-63870000D01*
X109910000Y-63870000D02*
X112860000Y-64270000D01*
X112860000Y-64270000D02*
X113660000Y-61840000D01*
X113660000Y-61840000D02*
X114330000Y-61460000D01*
X116920000Y-61390000D02*
X117320000Y-60810000D01*
X117320000Y-60810000D02*
X119530000Y-61110000D01*
X122240000Y-71200000D02*
X122240000Y-69830000D01*
X121310600Y-72129400D02*
X122240000Y-71200000D01*
X120350000Y-77900000D02*
X120350000Y-76800000D01*
X120350000Y-76800000D02*
X119679400Y-76129400D01*
X119679400Y-76129400D02*
X119526720Y-76129400D01*
X116450000Y-78450000D02*
X119750000Y-78450000D01*
X120656120Y-78800000D02*
X121426720Y-78029400D01*
X120100000Y-78800000D02*
X120656120Y-78800000D01*
X119750000Y-78450000D02*
X120100000Y-78800000D01*
X135326720Y-65629400D02*
X134376678Y-65629400D01*
X149490000Y-73150000D02*
X156600000Y-73150000D01*
X149350000Y-73010000D02*
X149490000Y-73150000D01*
X143980000Y-73440000D02*
X144780000Y-72640000D01*
X141920000Y-73440000D02*
X143980000Y-73440000D01*
X141790000Y-73310000D02*
X141920000Y-73440000D01*
X133620000Y-69370000D02*
X133540000Y-69450000D01*
X133620000Y-66386078D02*
X133620000Y-69370000D01*
X134376678Y-65629400D02*
X133620000Y-66386078D01*
X148420000Y-70240000D02*
X156660000Y-70440000D01*
X148300000Y-66200000D02*
X148420000Y-70240000D01*
X148300000Y-64220000D02*
X148300000Y-66200000D01*
X134989400Y-62229400D02*
X135260000Y-62500000D01*
X137560000Y-62510000D02*
X138390000Y-61680000D01*
X138390000Y-61680000D02*
X141790000Y-61680000D01*
X133426720Y-62229400D02*
X134989400Y-62229400D01*
X108170000Y-89280000D02*
X108170000Y-89210000D01*
X108170000Y-89210000D02*
X106900000Y-87940000D01*
X106880000Y-85850000D02*
X106640000Y-85610000D01*
X106640000Y-85610000D02*
X106640000Y-84470000D01*
X109190000Y-66890000D02*
X107990000Y-66890000D01*
X107990000Y-66890000D02*
X107900000Y-66800000D01*
X109120000Y-87280000D02*
X107160000Y-87280000D01*
X107160000Y-87280000D02*
X105100000Y-85220000D01*
X135326720Y-66129400D02*
X137156960Y-66129400D01*
X148459760Y-79544480D02*
X148459760Y-80954880D01*
X148437600Y-79522320D02*
X148459760Y-79544480D01*
X137156960Y-66129400D02*
X137388600Y-65897760D01*
X148419120Y-82646520D02*
X148148040Y-82646520D01*
X136916280Y-66629400D02*
X135326720Y-66629400D01*
X137083800Y-66796920D02*
X136916280Y-66629400D01*
X147477480Y-81975960D02*
X147477480Y-79629000D01*
X148148040Y-82646520D02*
X147477480Y-81975960D01*
X150241000Y-87464900D02*
X148816060Y-87464900D01*
X151341520Y-89814400D02*
X152664160Y-88491760D01*
X149494240Y-89814400D02*
X151341520Y-89814400D01*
X148742400Y-89062560D02*
X149494240Y-89814400D01*
X148742400Y-87538560D02*
X148742400Y-89062560D01*
X148816060Y-87464900D02*
X148742400Y-87538560D01*
X142258480Y-85852000D02*
X142483840Y-85852000D01*
X142483840Y-85852000D02*
X142826740Y-86194900D01*
X142826740Y-86194900D02*
X143891000Y-86194900D01*
X142258480Y-87619840D02*
X142504160Y-87619840D01*
X142504160Y-87619840D02*
X142659100Y-87464900D01*
X142659100Y-87464900D02*
X143891000Y-87464900D01*
X108140000Y-84470000D02*
X108140000Y-85670000D01*
X123926720Y-79466720D02*
X123926720Y-78029400D01*
X124070000Y-79610000D02*
X123926720Y-79466720D01*
X110960000Y-79270000D02*
X112090000Y-79270000D01*
X110680000Y-79550000D02*
X110960000Y-79270000D01*
X108140000Y-85670000D02*
X108240000Y-85770000D01*
X115980000Y-76600000D02*
X115980000Y-74180000D01*
X117709400Y-72629400D02*
X119526720Y-72629400D01*
X117670000Y-72590000D02*
X117709400Y-72629400D01*
X117670000Y-72570000D02*
X117670000Y-72590000D01*
X117560602Y-72679398D02*
X117670000Y-72570000D01*
X117480602Y-72679398D02*
X117560602Y-72679398D01*
X115980000Y-74180000D02*
X117480602Y-72679398D01*
X117774000Y-81292000D02*
X122440000Y-81292000D01*
X122440000Y-81292000D02*
X123952000Y-82804000D01*
X131755000Y-83285000D02*
X130785000Y-83285000D01*
X123926720Y-65146720D02*
X123926720Y-62229400D01*
X124660000Y-65880000D02*
X123926720Y-65146720D01*
X127670000Y-64820000D02*
X125660000Y-64820000D01*
X129680000Y-66830000D02*
X127670000Y-64820000D01*
X131170000Y-70540000D02*
X131170000Y-68320000D01*
X133010000Y-72380000D02*
X131170000Y-70540000D01*
X130300000Y-82800000D02*
X130300000Y-79690000D01*
X130785000Y-83285000D02*
X130300000Y-82800000D01*
X123926720Y-62229400D02*
X123926720Y-60566420D01*
X123192540Y-58945080D02*
X122258520Y-58011060D01*
X123192540Y-59832240D02*
X123192540Y-58945080D01*
X123926720Y-60566420D02*
X123192540Y-59832240D01*
X117774000Y-80792000D02*
X122702000Y-80792000D01*
X123698000Y-81788000D02*
X123952000Y-81788000D01*
X122702000Y-80792000D02*
X123698000Y-81788000D01*
X131755000Y-84555000D02*
X131205000Y-84555000D01*
X131205000Y-84555000D02*
X129600000Y-82950000D01*
X129600000Y-82950000D02*
X129600000Y-80430000D01*
X132080000Y-72540000D02*
X130450000Y-70910000D01*
X130450000Y-70910000D02*
X130450000Y-68840000D01*
X129010000Y-67580000D02*
X126980000Y-65550000D01*
X126980000Y-65550000D02*
X126390000Y-65550000D01*
X125420000Y-66670000D02*
X125400000Y-66690000D01*
X125400000Y-66690000D02*
X124500000Y-66690000D01*
X124500000Y-66690000D02*
X123426720Y-65616720D01*
X123426720Y-65616720D02*
X123426720Y-62229400D01*
X123426720Y-62229400D02*
X123426720Y-60924240D01*
X123426720Y-60924240D02*
X122258520Y-59756040D01*
X124940000Y-56970000D02*
X124940000Y-56840000D01*
X122926720Y-63993280D02*
X122840000Y-64080000D01*
X122840000Y-64080000D02*
X122800000Y-64080000D01*
X122926720Y-62229400D02*
X122926720Y-63993280D01*
X150400000Y-52040000D02*
X149010000Y-50650000D01*
X150400000Y-53200000D02*
X150400000Y-52040000D01*
X149060000Y-54540000D02*
X150400000Y-53200000D01*
X131230000Y-54540000D02*
X149060000Y-54540000D01*
X131090000Y-54680000D02*
X131230000Y-54540000D01*
X130990000Y-53060000D02*
X131040000Y-53110000D01*
X130060000Y-53060000D02*
X130990000Y-53060000D01*
X127020000Y-56100000D02*
X130060000Y-53060000D01*
X125680000Y-56100000D02*
X127020000Y-56100000D01*
X124940000Y-56840000D02*
X125680000Y-56100000D01*
X126130000Y-56940000D02*
X127320000Y-56940000D01*
X138410000Y-51850000D02*
X137100000Y-50540000D01*
X138410000Y-53320000D02*
X138410000Y-51850000D01*
X137810000Y-53920000D02*
X138410000Y-53320000D01*
X130340000Y-53920000D02*
X137810000Y-53920000D01*
X127320000Y-56940000D02*
X130340000Y-53920000D01*
X122426720Y-62229400D02*
X122469916Y-63168163D01*
X126130000Y-56940000D02*
X126150000Y-56940000D01*
X122020000Y-64370000D02*
X122000000Y-64370000D01*
X122469916Y-63168163D02*
X122020000Y-64370000D01*
X119526720Y-64129400D02*
X118049400Y-64129400D01*
X112850000Y-50540000D02*
X111960000Y-50540000D01*
X115950000Y-53640000D02*
X112850000Y-50540000D01*
X115950000Y-62030000D02*
X115950000Y-53640000D01*
X118049400Y-64129400D02*
X115950000Y-62030000D01*
X125720000Y-52280000D02*
X124450000Y-51010000D01*
X115360000Y-53960000D02*
X113930000Y-52530000D01*
X115360000Y-62440000D02*
X115360000Y-53960000D01*
X124450000Y-51010000D02*
X124450000Y-50650000D01*
X117549400Y-64629400D02*
X115360000Y-62440000D01*
X127330000Y-76570000D02*
X127430000Y-76570000D01*
X137100000Y-71890000D02*
X137100000Y-71140000D01*
X137550000Y-72340000D02*
X137100000Y-71890000D01*
X138000000Y-75410000D02*
X137550000Y-74040000D01*
X138810000Y-75770000D02*
X138000000Y-75410000D01*
X140790000Y-76110000D02*
X138810000Y-75770000D01*
X143160000Y-78290000D02*
X140790000Y-76110000D01*
X145570000Y-78320000D02*
X145010000Y-77760000D01*
X145570000Y-79120000D02*
X145570000Y-78320000D01*
X147040000Y-77650000D02*
X145570000Y-79120000D01*
X148890000Y-77650000D02*
X147040000Y-77650000D01*
X149450000Y-77090000D02*
X148890000Y-77650000D01*
X154400000Y-61540000D02*
X154400000Y-64150000D01*
X158730000Y-57210000D02*
X154400000Y-61540000D01*
X127426720Y-76573280D02*
X127426720Y-78029400D01*
X127430000Y-76570000D02*
X127426720Y-76573280D01*
X158730000Y-56830000D02*
X158730000Y-57210000D01*
X122926720Y-78029400D02*
X122926720Y-79383280D01*
X112648000Y-83292000D02*
X113874000Y-83292000D01*
X112620000Y-83320000D02*
X112648000Y-83292000D01*
X122220000Y-80090000D02*
X121870000Y-80090000D01*
X122926720Y-79383280D02*
X122220000Y-80090000D01*
X123060000Y-87450000D02*
X122800000Y-87450000D01*
X122800000Y-87450000D02*
X121730000Y-86380000D01*
X121730000Y-86380000D02*
X120700000Y-86380000D01*
X120700000Y-86380000D02*
X120240000Y-85920000D01*
X120240000Y-85920000D02*
X120240000Y-84600000D01*
X120240000Y-84600000D02*
X120810000Y-84030000D01*
X120810000Y-84030000D02*
X121250000Y-84030000D01*
X123050000Y-80180000D02*
X123426720Y-79803280D01*
X123426720Y-79803280D02*
X123426720Y-78029400D01*
X119526720Y-64629400D02*
X117549400Y-64629400D01*
M02*
